<?xml version="1.0" encoding="utf-8"?>
<svg id="master-artboard" viewBox="0 0 1750 980" version="1.1" xmlns="http://www.w3.org/2000/svg" x="0px" y="0px" width="1750px" height="980px" enable-background="new 0 0 1750 980" xmlns:xlink="http://www.w3.org/1999/xlink"><defs><path d="M516.2 537.89L481.54 479.57" id="a1NiqKrJxh"/><path d="M516.2 537.89L481.54 479.57" id="cjoToUI76"/><path d="M531.23 537.89L496.57 479.57" id="i1m2MVN7PW"/><path d="M531.23 537.89L496.57 479.57" id="a3cPVmW0vQ"/><path d="M420.6 537.89L455.25 479.57" id="m17dEKTn4E"/><path d="M420.6 537.89L455.25 479.57" id="a1JtSZE2IR"/><path d="M551.5 356.69L517.09 481.4L429.8 481.4L429.8 476.96L494.54 476.96L500.27 356.69L551.5 356.69Z" id="b87fF1unlf"/><path d="M551.5 356.69L517.09 481.4L429.8 481.4L429.8 476.96L494.54 476.96L500.27 356.69L551.5 356.69Z" id="a3aWd9WHYH"/><path d="M424.1 533.39C424.91 538.59 425.36 541.49 425.45 542.07C425.45 542.07 425.45 542.07 425.45 542.07C419.62 542.97 416.39 543.48 415.74 543.58C415.74 543.58 415.74 543.58 415.74 543.58C414.93 538.37 414.48 535.48 414.39 534.9C414.39 534.9 414.39 534.9 414.39 534.9C420.22 533.99 423.45 533.49 424.1 533.39C424.1 533.39 424.1 533.39 424.1 533.39Z" id="k3m8dmJh5"/><path d="M424.1 533.39C424.91 538.59 425.36 541.49 425.45 542.07C425.45 542.07 425.45 542.07 425.45 542.07C419.62 542.97 416.39 543.48 415.74 543.58C415.74 543.58 415.74 543.58 415.74 543.58C414.93 538.37 414.48 535.48 414.39 534.9C414.39 534.9 414.39 534.9 414.39 534.9C420.22 533.99 423.45 533.49 424.1 533.39C424.1 533.39 424.1 533.39 424.1 533.39Z" id="a8oHe5Jy6z"/><path d="M366.92 527.9C364.05 532.32 362.45 534.77 362.13 535.26C362.13 535.26 362.13 535.26 362.13 535.26C357.19 532.05 354.44 530.27 353.89 529.91C353.89 529.91 353.89 529.91 353.89 529.91C356.76 525.49 358.35 523.03 358.67 522.54C358.67 522.54 358.67 522.54 358.67 522.54C363.62 525.75 366.37 527.54 366.92 527.9C366.92 527.9 366.92 527.9 366.92 527.9Z" id="b2pk36ikz8"/><path d="M366.92 527.9C364.05 532.32 362.45 534.77 362.13 535.26C362.13 535.26 362.13 535.26 362.13 535.26C357.19 532.05 354.44 530.27 353.89 529.91C353.89 529.91 353.89 529.91 353.89 529.91C356.76 525.49 358.35 523.03 358.67 522.54C358.67 522.54 358.67 522.54 358.67 522.54C363.62 525.75 366.37 527.54 366.92 527.9C366.92 527.9 366.92 527.9 366.92 527.9Z" id="b2d54Copcg"/><path d="M365.18 531.44C366.97 529.78 401.24 480.24 404.81 476.78C408.38 473.33 399.24 438.54 399.24 438.54C392.07 438.54 356.27 521.89 356.27 524.94C356.27 527.98 364.04 531.44 365.18 531.44Z" id="cu84oSZwt"/><path d="M365.18 531.44C366.97 529.78 401.24 480.24 404.81 476.78C408.38 473.33 399.24 438.54 399.24 438.54C392.07 438.54 356.27 521.89 356.27 524.94C356.27 527.98 364.04 531.44 365.18 531.44Z" id="a17JXjEvlz"/><path d="M440.34 399.78C438.29 399.53 426 399.02 420.88 398.81C419.21 396.2 415.68 394.39 411.59 394.39C405.89 394.39 401.26 397.9 401.26 402.22C401.26 402.31 401.26 402.41 401.26 402.5C403.33 402.5 419.82 402.5 421.88 402.5C421.88 402.41 421.88 402.31 421.88 402.22C421.87 401.13 421.58 400.06 421.02 399.11C422.22 399.3 428.19 400.26 438.93 401.97C440.35 402.12 447.44 402.85 460.21 404.18C461.52 393.03 462.25 386.84 462.4 385.6C459.1 381.19 457.04 378.43 456.21 377.33C453.86 378.07 442.35 387.93 440.34 399.78Z" id="fhCOSeciX"/><path d="M440.34 399.78C438.29 399.53 426 399.02 420.88 398.81C419.21 396.2 415.68 394.39 411.59 394.39C405.89 394.39 401.26 397.9 401.26 402.22C401.26 402.31 401.26 402.41 401.26 402.5C403.33 402.5 419.82 402.5 421.88 402.5C421.88 402.41 421.88 402.31 421.88 402.22C421.87 401.13 421.58 400.06 421.02 399.11C422.22 399.3 428.19 400.26 438.93 401.97C440.35 402.12 447.44 402.85 460.21 404.18C461.52 393.03 462.25 386.84 462.4 385.6C459.1 381.19 457.04 378.43 456.21 377.33C453.86 378.07 442.35 387.93 440.34 399.78Z" id="a197FXcAcp"/><path d="M447.71 375.94C447.71 377.61 456.62 385.07 463.47 385.51C470.31 385.96 473.88 364.13 473.88 364.13C473.88 362.63 470.14 360.93 467.4 360.93C460.09 360.93 447.71 374.26 447.71 375.94Z" id="a1aZbdT0PB"/><path d="M447.71 375.94C447.71 377.61 456.62 385.07 463.47 385.51C470.31 385.96 473.88 364.13 473.88 364.13C473.88 362.63 470.14 360.93 467.4 360.93C460.09 360.93 447.71 374.26 447.71 375.94Z" id="cmCppUZP"/><path d="M464.53 451.18C461.54 447.24 442.97 353.44 492.05 353.44C533.41 353.44 523.96 446.87 518.72 450.82C513.48 454.77 467.52 455.13 464.53 451.18Z" id="bMyjsmbkp"/><path d="M464.53 451.18C461.54 447.24 442.97 353.44 492.05 353.44C533.41 353.44 523.96 446.87 518.72 450.82C513.48 454.77 467.52 455.13 464.53 451.18Z" id="eawvlLnw0K"/><path d="M482.79 335.57C482.79 348.86 482.79 356.24 482.79 357.72C482.79 361.23 499.32 361.26 499.32 357.72C499.32 354.76 499.32 347.38 499.32 335.57C496.01 335.57 484.44 335.57 482.79 335.57Z" id="a3wlS6jrbg"/><path d="M482.79 335.57C482.79 348.86 482.79 356.24 482.79 357.72C482.79 361.23 499.32 361.26 499.32 357.72C499.32 354.76 499.32 347.38 499.32 335.57C496.01 335.57 484.44 335.57 482.79 335.57Z" id="aewP1MZLr"/><path d="M504.03 327.18C501.92 340.43 492.98 350.02 484.07 348.59C475.15 347.17 469.64 335.28 471.75 322.03C473.87 308.78 482.81 299.19 491.72 300.61C500.63 302.04 506.14 313.93 504.03 327.18Z" id="a1Gz3nPqzB"/><path d="M504.03 327.18C501.92 340.43 492.98 350.02 484.07 348.59C475.15 347.17 469.64 335.28 471.75 322.03C473.87 308.78 482.81 299.19 491.72 300.61C500.63 302.04 506.14 313.93 504.03 327.18Z" id="a1l8q2w8Q0"/><path d="M577.87 289.87C594.93 289.87 600.27 301.07 600.27 308C600.27 325.6 585.87 332.53 575.2 332.53C558.13 332.53 556 320.8 535.73 320.8C516 320.8 518.67 304.8 514.4 304.8C512.27 304.8 510.93 305.07 510.13 305.87C509.33 306.67 505.33 303.73 505.33 302.67C505.33 301.6 510.67 288.8 526.67 288.8C534.67 288.8 542.67 293.07 552.8 293.07C560.8 293.07 568.27 289.87 577.87 289.87Z" id="bMXSg5Cqc"/><path d="M577.87 289.87C594.93 289.87 600.27 301.07 600.27 308C600.27 325.6 585.87 332.53 575.2 332.53C558.13 332.53 556 320.8 535.73 320.8C516 320.8 518.67 304.8 514.4 304.8C512.27 304.8 510.93 305.07 510.13 305.87C509.33 306.67 505.33 303.73 505.33 302.67C505.33 301.6 510.67 288.8 526.67 288.8C534.67 288.8 542.67 293.07 552.8 293.07C560.8 293.07 568.27 289.87 577.87 289.87Z" id="a1PRIyToVJ"/><path d="M472.08 320.48C472.91 315.53 476.88 308.69 477.07 308.53C478.13 309.6 482.09 313.02 486.13 313.33C489.51 313.51 492.78 314.53 495.65 316.3C495.89 317.68 496.41 318.99 497.18 320.16C498.27 321.92 499.92 323.26 501.86 323.97C502.34 325.16 502.61 326.43 502.67 327.71C502.67 333.4 502.13 335.71 501.6 337.31C510.29 337.31 514.4 328.35 514.4 317.04C514.4 298.42 497.92 294.67 490.93 294.67C472.07 294.67 468.12 309.02 468.12 313.16C468.12 317.31 470.74 320.38 472.08 320.48Z" id="ayJXdam7e"/><path d="M472.08 320.48C472.91 315.53 476.88 308.69 477.07 308.53C478.13 309.6 482.09 313.02 486.13 313.33C489.51 313.51 492.78 314.53 495.65 316.3C495.89 317.68 496.41 318.99 497.18 320.16C498.27 321.92 499.92 323.26 501.86 323.97C502.34 325.16 502.61 326.43 502.67 327.71C502.67 333.4 502.13 335.71 501.6 337.31C510.29 337.31 514.4 328.35 514.4 317.04C514.4 298.42 497.92 294.67 490.93 294.67C472.07 294.67 468.12 309.02 468.12 313.16C468.12 317.31 470.74 320.38 472.08 320.48Z" id="c30IEigmzT"/><path d="M498.03 327.82C498.03 330.36 500.1 332.43 502.64 332.43C505.18 332.43 507.25 330.36 507.25 327.82C507.25 325.27 505.18 323.21 502.64 323.21C500.1 323.21 498.03 325.27 498.03 327.82Z" id="a8UjP80tP"/><path d="M498.03 327.82C498.03 330.36 500.1 332.43 502.64 332.43C505.18 332.43 507.25 330.36 507.25 327.82C507.25 325.27 505.18 323.21 502.64 323.21C500.1 323.21 498.03 325.27 498.03 327.82Z" id="a38S3CVMal"/><path d="M435.22 395.69C433.72 395.69 429.85 394.46 428.28 394.46C418.97 394.46 417.02 399.49 417.02 400.98C417.02 402.47 417.34 402.51 417.63 402.51C449.63 402.51 457.67 416.01 475.67 416.01C481.5 416.01 493.5 411.79 500.74 400.99C498.2 392.38 487.2 387.93 487.2 387.93C485.34 388.38 477.88 393 473.4 400.98C469 400.16 451.1 395.69 435.22 395.69Z" id="h7xewqcRH"/><path d="M435.22 395.69C433.72 395.69 429.85 394.46 428.28 394.46C418.97 394.46 417.02 399.49 417.02 400.98C417.02 402.47 417.34 402.51 417.63 402.51C449.63 402.51 457.67 416.01 475.67 416.01C481.5 416.01 493.5 411.79 500.74 400.99C498.2 392.38 487.2 387.93 487.2 387.93C485.34 388.38 477.88 393 473.4 400.98C469 400.16 451.1 395.69 435.22 395.69Z" id="d5AwKOnjl"/><path d="M480.52 385.45C480.38 380.77 509 360.36 518.66 369.74C528.65 379.45 503.38 406.3 499.32 405.9C495.27 405.51 480.66 390.12 480.52 385.45Z" id="gqfYavzag"/><path d="M480.52 385.45C480.38 380.77 509 360.36 518.66 369.74C528.65 379.45 503.38 406.3 499.32 405.9C495.27 405.51 480.66 390.12 480.52 385.45Z" id="bjwBwHxbw"/><path d="M539.2 403.71C539.2 408.08 539.2 410.51 539.2 410.99C539.2 410.99 539.2 410.99 539.2 410.99C403.77 410.99 328.53 410.99 313.48 410.99C313.48 410.99 313.48 410.99 313.48 410.99C313.48 406.62 313.48 404.19 313.48 403.71C313.48 403.71 313.48 403.71 313.48 403.71C448.91 403.71 524.15 403.71 539.2 403.71C539.2 403.71 539.2 403.71 539.2 403.71Z" id="b1M3l4vKAP"/><path d="M539.2 403.71C539.2 408.08 539.2 410.51 539.2 410.99C539.2 410.99 539.2 410.99 539.2 410.99C403.77 410.99 328.53 410.99 313.48 410.99C313.48 410.99 313.48 410.99 313.48 410.99C313.48 406.62 313.48 404.19 313.48 403.71C313.48 403.71 313.48 403.71 313.48 403.71C448.91 403.71 524.15 403.71 539.2 403.71C539.2 403.71 539.2 403.71 539.2 403.71Z" id="b43QhmKTR"/><path d="M426.34 434.12C418.69 434.12 396.31 434.9 396.31 441.31C396.31 464.44 409.2 535.67 411.82 538.33C413.06 539.58 423.9 538.75 425.25 537.39C425.16 531.53 428.57 472.6 425.46 465.46C453.97 475.91 486.36 480.86 494.89 480.86C519.62 480.84 518.63 458.19 518.63 455.47C518.63 453.17 519.03 450.52 517.6 449.93C483.67 435.94 433.99 434.12 426.34 434.12Z" id="b2xtDFoSpE"/><path d="M426.34 434.12C418.69 434.12 396.31 434.9 396.31 441.31C396.31 464.44 409.2 535.67 411.82 538.33C413.06 539.58 423.9 538.75 425.25 537.39C425.16 531.53 428.57 472.6 425.46 465.46C453.97 475.91 486.36 480.86 494.89 480.86C519.62 480.84 518.63 458.19 518.63 455.47C518.63 453.17 519.03 450.52 517.6 449.93C483.67 435.94 433.99 434.12 426.34 434.12Z" id="d9J2kxZUf"/><path d="M331.17 523.57L328.97 527.21L356.27 544.09L362.94 534.17L362.94 534.17L354.34 528.43L331.17 523.57Z" id="e7naz1hx6"/><path d="M331.17 523.57L328.97 527.21L356.27 544.09L362.94 534.17L362.94 534.17L354.34 528.43L331.17 523.57Z" id="f1hfcyGfUt"/><path d="M395.71 553.5L396.55 557.67L428.07 551.61L426.26 539.78L426.26 539.78L416.04 541.38L395.71 553.5Z" id="aHN8rKJWc"/><path d="M395.71 553.5L396.55 557.67L428.07 551.61L426.26 539.78L426.26 539.78L416.04 541.38L395.71 553.5Z" id="a1kX11Ylas"/><path d="M527.07 519.64L527.07 408.95" id="a2NANT5je4"/><path d="M527.07 519.64L527.07 408.95" id="dEJ9aMLq"/><path d="M339.53 519.64L339.53 408.95" id="aiaPOyFP4"/><path d="M339.53 519.64L339.53 408.95" id="adHXrubzR"/><path d="M511.22 541.82L511.22 408.95" id="a1asZK2IHw"/><path d="M511.22 541.82L511.22 408.95" id="b2IWacdpcQ"/><path d="M322.78 541.82L322.78 408.95" id="a2xphrAp7W"/><path d="M322.78 541.82L322.78 408.95" id="cCFcd0PDw"/><path d="M436.02 537.89L470.67 479.57" id="f6GQrKD0oH"/><path d="M436.02 537.89L470.67 479.57" id="i4MqPdGHxz"/><path d="M433.79 402.37C433.79 403.17 433.79 403.62 433.79 403.71C433.79 403.71 433.79 403.71 433.79 403.71C411.3 403.71 398.81 403.71 396.31 403.71C396.31 403.71 396.31 403.71 396.31 403.71C396.31 402.9 396.31 402.46 396.31 402.37C396.31 402.37 396.31 402.37 396.31 402.37C418.8 402.37 431.29 402.37 433.79 402.37C433.79 402.37 433.79 402.37 433.79 402.37Z" id="eGtpLK9Ko"/><path d="M433.79 402.37C433.79 403.17 433.79 403.62 433.79 403.71C433.79 403.71 433.79 403.71 433.79 403.71C411.3 403.71 398.81 403.71 396.31 403.71C396.31 403.71 396.31 403.71 396.31 403.71C396.31 402.9 396.31 402.46 396.31 402.37C396.31 402.37 396.31 402.37 396.31 402.37C418.8 402.37 431.29 402.37 433.79 402.37C433.79 402.37 433.79 402.37 433.79 402.37Z" id="esN9AT3G8"/><path d="M436.56 315.12C436.56 350.77 436.56 370.58 436.56 374.54C436.56 374.54 436.56 374.54 436.56 374.54C387.47 374.54 360.19 374.54 354.74 374.54C354.74 374.54 354.74 374.54 354.74 374.54C354.74 338.89 354.74 319.08 354.74 315.12C354.74 315.12 354.74 315.12 354.74 315.12C403.83 315.12 431.11 315.12 436.56 315.12C436.56 315.12 436.56 315.12 436.56 315.12Z" id="b168bIarTj"/><path d="M436.56 315.12C436.56 350.77 436.56 370.58 436.56 374.54C436.56 374.54 436.56 374.54 436.56 374.54C387.47 374.54 360.19 374.54 354.74 374.54C354.74 374.54 354.74 374.54 354.74 374.54C354.74 338.89 354.74 319.08 354.74 315.12C354.74 315.12 354.74 315.12 354.74 315.12C403.83 315.12 431.11 315.12 436.56 315.12C436.56 315.12 436.56 315.12 436.56 315.12Z" id="f8nM1Xw5q5"/><path d="M392.65 403.71L403.61 363.37L384.15 363.37L384.15 363.37L372.87 403.71L392.65 403.71Z" id="b3fueeY3m9"/><path d="M392.65 403.71L403.61 363.37L384.15 363.37L384.15 363.37L372.87 403.71L392.65 403.71Z" id="bPsujRX8"/></defs>











<g transform="matrix(2.894755803659958, 0, 0, 2.894755803659958, -433.47176799188287, -760.3863911838326)"><g><g><g><use opacity="1" fill="#000000" fill-opacity="0" xlink:href="#a1NiqKrJxh"/><g><use opacity="1" fill-opacity="0" stroke="#000000" stroke-width="1" stroke-opacity="0" xlink:href="#a1NiqKrJxh"/></g></g><g><use opacity="1" fill="#000000" fill-opacity="0" xlink:href="#cjoToUI76"/><g><use opacity="1" fill-opacity="0" stroke="#ed7562" stroke-width="4" stroke-opacity="1" xlink:href="#cjoToUI76"/></g></g><g><use opacity="1" fill="#000000" fill-opacity="0" xlink:href="#i1m2MVN7PW"/><g><use opacity="1" fill-opacity="0" stroke="#000000" stroke-width="1" stroke-opacity="0" xlink:href="#i1m2MVN7PW"/></g></g><g><use opacity="1" fill="#000000" fill-opacity="0" xlink:href="#a3cPVmW0vQ"/><g><use opacity="1" fill-opacity="0" stroke="#ed7562" stroke-width="4" stroke-opacity="1" xlink:href="#a3cPVmW0vQ"/></g></g><g><use opacity="1" fill="#000000" fill-opacity="0" xlink:href="#m17dEKTn4E"/><g><use opacity="1" fill-opacity="0" stroke="#000000" stroke-width="1" stroke-opacity="0" xlink:href="#m17dEKTn4E"/></g></g><g><use opacity="1" fill="#000000" fill-opacity="0" xlink:href="#a1JtSZE2IR"/><g><use opacity="1" fill-opacity="0" stroke="#ed7562" stroke-width="4" stroke-opacity="1" xlink:href="#a1JtSZE2IR"/></g></g><g><use opacity="1" fill="#ed7562" fill-opacity="1" xlink:href="#b87fF1unlf"/><g><use opacity="1" fill-opacity="0" stroke="#000000" stroke-width="1" stroke-opacity="0" xlink:href="#b87fF1unlf"/></g></g><g><use opacity="1" fill="#000000" fill-opacity="0" xlink:href="#a3aWd9WHYH"/><g><use opacity="1" fill-opacity="0" stroke="#000000" stroke-width="1" stroke-opacity="0" xlink:href="#a3aWd9WHYH"/></g></g><g><use opacity="1" fill="#de8e68" fill-opacity="1" xlink:href="#k3m8dmJh5"/><g><use opacity="1" fill-opacity="0" stroke="#000000" stroke-width="1" stroke-opacity="0" xlink:href="#k3m8dmJh5"/></g></g><g><use opacity="1" fill="#000000" fill-opacity="0" xlink:href="#a8oHe5Jy6z"/><g><use opacity="1" fill-opacity="0" stroke="#000000" stroke-width="1" stroke-opacity="0" xlink:href="#a8oHe5Jy6z"/></g></g><g><use opacity="1" fill="#de8e68" fill-opacity="1" xlink:href="#b2pk36ikz8"/><g><use opacity="1" fill-opacity="0" stroke="#000000" stroke-width="1" stroke-opacity="0" xlink:href="#b2pk36ikz8"/></g></g><g><use opacity="1" fill="#000000" fill-opacity="0" xlink:href="#b2d54Copcg"/><g><use opacity="1" fill-opacity="0" stroke="#000000" stroke-width="1" stroke-opacity="0" xlink:href="#b2d54Copcg"/></g></g><g><use opacity="1" fill="#56cad8" fill-opacity="1" xlink:href="#cu84oSZwt"/><g><use opacity="1" fill-opacity="0" stroke="#000000" stroke-width="1" stroke-opacity="0" xlink:href="#cu84oSZwt"/></g></g><g><use opacity="1" fill="#000000" fill-opacity="0" xlink:href="#a17JXjEvlz"/><g><use opacity="1" fill-opacity="0" stroke="#000000" stroke-width="1" stroke-opacity="0" xlink:href="#a17JXjEvlz"/></g></g><g><use opacity="1" fill="#d37c59" fill-opacity="1" xlink:href="#fhCOSeciX"/><g><use opacity="1" fill-opacity="0" stroke="#000000" stroke-width="1" stroke-opacity="0" xlink:href="#fhCOSeciX"/></g></g><g><use opacity="1" fill="#000000" fill-opacity="0" xlink:href="#a197FXcAcp"/><g><use opacity="1" fill-opacity="0" stroke="#000000" stroke-width="1" stroke-opacity="0" xlink:href="#a197FXcAcp"/></g></g><g><use opacity="1" fill="#fcc486" fill-opacity="1" xlink:href="#a1aZbdT0PB"/><g><use opacity="1" fill-opacity="0" stroke="#000000" stroke-width="1" stroke-opacity="0" xlink:href="#a1aZbdT0PB"/></g></g><g><use opacity="1" fill="#000000" fill-opacity="0" xlink:href="#cmCppUZP"/><g><use opacity="1" fill-opacity="0" stroke="#000000" stroke-width="1" stroke-opacity="0" xlink:href="#cmCppUZP"/></g></g><g><use opacity="1" fill="#fed385" fill-opacity="1" xlink:href="#bMyjsmbkp"/><g><use opacity="1" fill-opacity="0" stroke="#000000" stroke-width="1" stroke-opacity="0" xlink:href="#bMyjsmbkp"/></g></g><g><use opacity="1" fill="#000000" fill-opacity="0" xlink:href="#eawvlLnw0K"/><g><use opacity="1" fill-opacity="0" stroke="#000000" stroke-width="1" stroke-opacity="0" xlink:href="#eawvlLnw0K"/></g></g><g><use opacity="1" fill="#d37c59" fill-opacity="1" xlink:href="#a3wlS6jrbg"/><g><use opacity="1" fill-opacity="0" stroke="#000000" stroke-width="1" stroke-opacity="0" xlink:href="#a3wlS6jrbg"/></g></g><g><use opacity="1" fill="#000000" fill-opacity="0" xlink:href="#aewP1MZLr"/><g><use opacity="1" fill-opacity="0" stroke="#000000" stroke-width="1" stroke-opacity="0" xlink:href="#aewP1MZLr"/></g></g><g><use opacity="1" fill="#de8e68" fill-opacity="1" xlink:href="#a1Gz3nPqzB"/><g><use opacity="1" fill-opacity="0" stroke="#000000" stroke-width="1" stroke-opacity="0" xlink:href="#a1Gz3nPqzB"/></g></g><g><use opacity="1" fill="#000000" fill-opacity="0" xlink:href="#a1l8q2w8Q0"/><g><use opacity="1" fill-opacity="0" stroke="#000000" stroke-width="1" stroke-opacity="0" xlink:href="#a1l8q2w8Q0"/></g></g><g><use opacity="1" fill="#000000" fill-opacity="1" xlink:href="#bMXSg5Cqc"/><g><use opacity="1" fill-opacity="0" stroke="#000000" stroke-width="1" stroke-opacity="0" xlink:href="#bMXSg5Cqc"/></g></g><g><use opacity="1" fill="#000000" fill-opacity="0" xlink:href="#a1PRIyToVJ"/><g><use opacity="1" fill-opacity="0" stroke="#000000" stroke-width="1" stroke-opacity="0" xlink:href="#a1PRIyToVJ"/></g></g><g><use opacity="1" fill="#000000" fill-opacity="1" xlink:href="#ayJXdam7e"/><g><use opacity="1" fill-opacity="0" stroke="#000000" stroke-width="1" stroke-opacity="0" xlink:href="#ayJXdam7e"/></g></g><g><use opacity="1" fill="#000000" fill-opacity="0" xlink:href="#c30IEigmzT"/><g><use opacity="1" fill-opacity="0" stroke="#000000" stroke-width="1" stroke-opacity="0" xlink:href="#c30IEigmzT"/></g></g><g><use opacity="1" fill="#de8e68" fill-opacity="1" xlink:href="#a8UjP80tP"/><g><use opacity="1" fill-opacity="0" stroke="#000000" stroke-width="1" stroke-opacity="0" xlink:href="#a8UjP80tP"/></g></g><g><use opacity="1" fill="#000000" fill-opacity="0" xlink:href="#a38S3CVMal"/><g><use opacity="1" fill-opacity="0" stroke="#000000" stroke-width="1" stroke-opacity="0" xlink:href="#a38S3CVMal"/></g></g><g><use opacity="1" fill="#de8e68" fill-opacity="1" xlink:href="#h7xewqcRH"/><g><use opacity="1" fill-opacity="0" stroke="#000000" stroke-width="1" stroke-opacity="0" xlink:href="#h7xewqcRH"/></g></g><g><use opacity="1" fill="#000000" fill-opacity="0" xlink:href="#d5AwKOnjl"/><g><use opacity="1" fill-opacity="0" stroke="#000000" stroke-width="1" stroke-opacity="0" xlink:href="#d5AwKOnjl"/></g></g><g><use opacity="1" fill="#fed892" fill-opacity="1" xlink:href="#gqfYavzag"/><g><use opacity="1" fill-opacity="0" stroke="#000000" stroke-width="1" stroke-opacity="0" xlink:href="#gqfYavzag"/></g></g><g><use opacity="1" fill="#000000" fill-opacity="0" xlink:href="#bjwBwHxbw"/><g><use opacity="1" fill-opacity="0" stroke="#000000" stroke-width="1" stroke-opacity="0" xlink:href="#bjwBwHxbw"/></g></g><g><use opacity="1" fill="#fd8369" fill-opacity="1" xlink:href="#b1M3l4vKAP"/><g><use opacity="1" fill-opacity="0" stroke="#000000" stroke-width="1" stroke-opacity="0" xlink:href="#b1M3l4vKAP"/></g></g><g><use opacity="1" fill="#000000" fill-opacity="0" xlink:href="#b43QhmKTR"/><g><use opacity="1" fill-opacity="0" stroke="#000000" stroke-width="1" stroke-opacity="0" xlink:href="#b43QhmKTR"/></g></g><g><use opacity="1" fill="#74d5de" fill-opacity="1" xlink:href="#b2xtDFoSpE"/><g><use opacity="1" fill-opacity="0" stroke="#000000" stroke-width="1" stroke-opacity="0" xlink:href="#b2xtDFoSpE"/></g></g><g><use opacity="1" fill="#000000" fill-opacity="0" xlink:href="#d9J2kxZUf"/><g><use opacity="1" fill-opacity="0" stroke="#000000" stroke-width="1" stroke-opacity="0" xlink:href="#d9J2kxZUf"/></g></g><g><use opacity="1" fill="#000000" fill-opacity="1" xlink:href="#e7naz1hx6"/><g><use opacity="1" fill-opacity="0" stroke="#000000" stroke-width="1" stroke-opacity="0" xlink:href="#e7naz1hx6"/></g></g><g><use opacity="1" fill="#000000" fill-opacity="0" xlink:href="#f1hfcyGfUt"/><g><use opacity="1" fill-opacity="0" stroke="#000000" stroke-width="1" stroke-opacity="0" xlink:href="#f1hfcyGfUt"/></g></g><g><use opacity="1" fill="#000000" fill-opacity="1" xlink:href="#aHN8rKJWc"/><g><use opacity="1" fill-opacity="0" stroke="#000000" stroke-width="1" stroke-opacity="0" xlink:href="#aHN8rKJWc"/></g></g><g><use opacity="1" fill="#000000" fill-opacity="0" xlink:href="#a1kX11Ylas"/><g><use opacity="1" fill-opacity="0" stroke="#000000" stroke-width="1" stroke-opacity="0" xlink:href="#a1kX11Ylas"/></g></g><g><use opacity="1" fill="#000000" fill-opacity="0" xlink:href="#a2NANT5je4"/><g><use opacity="1" fill-opacity="0" stroke="#000000" stroke-width="1" stroke-opacity="0" xlink:href="#a2NANT5je4"/></g></g><g><use opacity="1" fill="#000000" fill-opacity="0" xlink:href="#dEJ9aMLq"/><g><use opacity="1" fill-opacity="0" stroke="#fd8369" stroke-width="4" stroke-opacity="1" xlink:href="#dEJ9aMLq"/></g></g><g><use opacity="1" fill="#000000" fill-opacity="0" xlink:href="#aiaPOyFP4"/><g><use opacity="1" fill-opacity="0" stroke="#000000" stroke-width="1" stroke-opacity="0" xlink:href="#aiaPOyFP4"/></g></g><g><use opacity="1" fill="#000000" fill-opacity="0" xlink:href="#adHXrubzR"/><g><use opacity="1" fill-opacity="0" stroke="#fd8369" stroke-width="4" stroke-opacity="1" xlink:href="#adHXrubzR"/></g></g><g><use opacity="1" fill="#000000" fill-opacity="0" xlink:href="#a1asZK2IHw"/><g><use opacity="1" fill-opacity="0" stroke="#000000" stroke-width="1" stroke-opacity="0" xlink:href="#a1asZK2IHw"/></g></g><g><use opacity="1" fill="#000000" fill-opacity="0" xlink:href="#b2IWacdpcQ"/><g><use opacity="1" fill-opacity="0" stroke="#fd8369" stroke-width="4" stroke-opacity="1" xlink:href="#b2IWacdpcQ"/></g></g><g><use opacity="1" fill="#000000" fill-opacity="0" xlink:href="#a2xphrAp7W"/><g><use opacity="1" fill-opacity="0" stroke="#000000" stroke-width="1" stroke-opacity="0" xlink:href="#a2xphrAp7W"/></g></g><g><use opacity="1" fill="#000000" fill-opacity="0" xlink:href="#cCFcd0PDw"/><g><use opacity="1" fill-opacity="0" stroke="#fd8369" stroke-width="4" stroke-opacity="1" xlink:href="#cCFcd0PDw"/></g></g><g><use opacity="1" fill="#000000" fill-opacity="0" xlink:href="#f6GQrKD0oH"/><g><use opacity="1" fill-opacity="0" stroke="#000000" stroke-width="1" stroke-opacity="0" xlink:href="#f6GQrKD0oH"/></g></g><g><use opacity="1" fill="#000000" fill-opacity="0" xlink:href="#i4MqPdGHxz"/><g><use opacity="1" fill-opacity="0" stroke="#ed7562" stroke-width="4" stroke-opacity="1" xlink:href="#i4MqPdGHxz"/></g></g><g><use opacity="1" fill="#74d5de" fill-opacity="1" xlink:href="#eGtpLK9Ko"/><g><use opacity="1" fill-opacity="0" stroke="#000000" stroke-width="1" stroke-opacity="0" xlink:href="#eGtpLK9Ko"/></g></g><g><use opacity="1" fill="#000000" fill-opacity="0" xlink:href="#esN9AT3G8"/><g><use opacity="1" fill-opacity="0" stroke="#000000" stroke-width="1" stroke-opacity="0" xlink:href="#esN9AT3G8"/></g></g><g><use opacity="1" fill="#74d5de" fill-opacity="1" xlink:href="#b168bIarTj"/><g><use opacity="1" fill-opacity="0" stroke="#000000" stroke-width="1" stroke-opacity="0" xlink:href="#b168bIarTj"/></g></g><g><use opacity="1" fill="#000000" fill-opacity="0" xlink:href="#f8nM1Xw5q5"/><g><use opacity="1" fill-opacity="0" stroke="#000000" stroke-width="1" stroke-opacity="0" xlink:href="#f8nM1Xw5q5"/></g></g><g><use opacity="1" fill="#56cad8" fill-opacity="1" xlink:href="#b3fueeY3m9"/><g><use opacity="1" fill-opacity="0" stroke="#000000" stroke-width="1" stroke-opacity="0" xlink:href="#b3fueeY3m9"/></g></g><g><use opacity="1" fill="#000000" fill-opacity="0" xlink:href="#bPsujRX8"/><g><use opacity="1" fill-opacity="0" stroke="#000000" stroke-width="1" stroke-opacity="0" xlink:href="#bPsujRX8"/></g></g></g></g></g></svg>