<svg xmlns="http://www.w3.org/2000/svg" viewBox="0 0 178.69 200.86"><defs><style>.cls-1,.cls-2{fill:#a87f58;}.cls-2,.cls-6,.cls-8{stroke:#fff;stroke-miterlimit:10;}.cls-2{stroke-width:1.72px;}.cls-3{font-size:19.77px;font-family:DINCondensed-Bold, DIN Condensed;}.cls-3,.cls-4,.cls-5,.cls-7{fill:#fff;}.cls-3,.cls-4{font-weight:700;}.cls-4,.cls-5{font-size:11.17px;}.cls-4{font-family:Futura-CondensedExtraBold, Futura;}.cls-5{font-family:Futura-Medium, Futura;}.cls-6,.cls-8{fill:none;}.cls-6{stroke-width:1.55px;}.cls-8{stroke-width:0.12px;}</style></defs><title>Asset 1</title><g id="Layer_2" data-name="Layer 2"><g id="Layer_1-2" data-name="Layer 1"><circle class="cls-1" cx="87" cy="91.77" r="87"/><circle class="cls-2" cx="87.21" cy="91.77" r="52.45"/><text class="cls-3" transform="matrix(0.03, -1, 1, 0.03, 25.84, 93.95)">C</text><text class="cls-3" transform="translate(27.19 78.88) rotate(-74.12)">A</text><text class="cls-3" transform="translate(32.15 64.62) rotate(-59.89)">C</text><text class="cls-3" transform="matrix(0.7, -0.72, 0.72, 0.7, 40.47, 52.02)">A</text><text class="cls-3" transform="matrix(0.85, -0.52, 0.52, 0.85, 51.62, 41.84)">O</text><text class="cls-3" transform="translate(65.4 34.63) rotate(-19.03)"> </text><text class="cls-3" transform="translate(75.88 31.62) rotate(-7.04)">E</text><text class="cls-3" transform="matrix(0.99, 0.12, -0.12, 0.99, 90.22, 30.67)">S</text><text class="cls-3" transform="translate(105.08 33.32) rotate(20.89)">P</text><text class="cls-3" transform="translate(118.89 39.65) rotate(33.37)">I</text><text class="cls-3" transform="matrix(0.69, 0.72, -0.72, 0.69, 127.93, 46.25)">N</text><text class="cls-3" transform="translate(138.2 58.25) rotate(60.7)">O</text><text class="cls-3" transform="translate(144.94 72.23) rotate(74.4)">Z</text><text class="cls-3" transform="matrix(0.03, 1, -1, 0.03, 147.89, 85.58)">A</text><text class="cls-4" transform="translate(135.15 144.46) rotate(-48.36)"> </text><text class="cls-5" transform="matrix(0.82, -0.57, 0.57, 0.82, 124.46, 152.57)">6</text><text class="cls-5" transform="translate(113.12 158.37) rotate(-25.16)">1</text><text class="cls-5" transform="translate(100.78 161.98) rotate(-14.01)">0</text><text class="cls-5" transform="translate(88.08 163.39) rotate(-4.81)">2</text><text class="cls-5" transform="translate(78.67 162.88) rotate(1.24)">.</text><text class="cls-5" transform="translate(66.37 159.99) rotate(19.04)">T</text><text class="cls-5" transform="matrix(0.93, 0.37, -0.37, 0.93, 54.76, 155.71)">S</text><text class="cls-5" transform="translate(44.11 148.83) rotate(34.73)">E</text><path class="cls-6" d="M68.56,98.69A16.09,16.09,0,0,0,66,99.87a15,15,0,0,0-4.86,4.51,14.32,14.32,0,0,0-.21,15.56,14.58,14.58,0,0,0,2.29,2.77,14.3,14.3,0,0,0,14.43,3.1,14.21,14.21,0,0,0,7.19-5.52A14.28,14.28,0,0,0,87,114.83a18.76,18.76,0,0,0,.22-2.51,47,47,0,0,0-.18-6.78c-.06-.68-.2-2.13-.5-4-.38-2.26-.84-4.17-1.23-5.62a56.23,56.23,0,0,0-2.71-7.64,54.91,54.91,0,0,0-3.77-7.15c-1.13-1.81-2.21-3.31-3.11-4.48h0a14.3,14.3,0,0,0-1.91-2.08A15.12,15.12,0,0,0,68,71.38a14.56,14.56,0,0,0-5.39-.46A14.29,14.29,0,0,0,49.89,84.41a14.43,14.43,0,0,0,.79,5.44,14.69,14.69,0,0,0,2.06,3.86,14.4,14.4,0,0,0,3.18,3.07,14.11,14.11,0,0,0,4.3,2.06,14.35,14.35,0,0,0,5.88.42,19.81,19.81,0,0,0,2.46-.57A49.73,49.73,0,0,0,75,96.43c.62-.27,2-.86,3.61-1.71a54.62,54.62,0,0,0,5-2.91A55.72,55.72,0,0,0,95.58,81.09C97,79.45,98.05,78,98.89,76.74l0,0a15.2,15.2,0,0,0,1.39-2.46,14.85,14.85,0,0,0,1.28-6.5,14.41,14.41,0,0,0-1.22-5.27,14.17,14.17,0,0,0-3.25-4.57,14.44,14.44,0,0,0-4.5-2.87,14,14,0,0,0-3.48-.9,14.26,14.26,0,0,0-13.5,6A14.27,14.27,0,0,0,73,68.82a14.38,14.38,0,0,0,1.42,5.72,18.17,18.17,0,0,0,1.3,2.16,49.79,49.79,0,0,0,4.12,5.37c.45.52,1.42,1.6,2.75,2.91A54.4,54.4,0,0,0,86.9,88.8a55,55,0,0,0,6.68,4.59A56.32,56.32,0,0,0,100.83,97c2,.8,3.74,1.38,5.16,1.8h0a15.79,15.79,0,0,0,2.77.55,14.87,14.87,0,0,0,6.58-.78,14.26,14.26,0,0,0,9.32-12.47,14.47,14.47,0,0,0-2.29-8.73,14.28,14.28,0,0,0-21.85-2.49,20.37,20.37,0,0,0-1.65,1.9,48.84,48.84,0,0,0-3.84,5.59c-.35.59-1.09,1.84-1.92,3.51-1,2-1.77,3.85-2.31,5.26a55.93,55.93,0,0,0-2.3,7.77,56.63,56.63,0,0,0-1.15,8c-.15,2.13-.16,4-.12,5.46l0-.06a14.24,14.24,0,0,0,.33,2.81,14.87,14.87,0,0,0,2.77,6,14.31,14.31,0,0,0,4.09,3.54,14.29,14.29,0,0,0,18.25-3.41,14.37,14.37,0,0,0,2.55-4.86,14,14,0,0,0,.6-4.34,14.16,14.16,0,0,0-.76-4.35,14,14,0,0,0-2.27-4.2,14.28,14.28,0,0,0-4.51-3.79,19.7,19.7,0,0,0-2.32-1,48.85,48.85,0,0,0-6.5-1.92c-.67-.15-2.09-.46-3.93-.74a56.15,56.15,0,0,0-5.72-.57,57,57,0,0,0-8.1.21,55.1,55.1,0,0,0-8,1.38c-2.07.52-3.83,1.08-5.23,1.58"/><path class="cls-1" d="M25.29,130.12a3.61,3.61,0,0,0,.24-1c.08-.94.58-1.15,1.21-2.65a9.93,9.93,0,0,0,.64-2.22,6.46,6.46,0,0,0,.08-2.28,6.72,6.72,0,0,0-1-2.49c-.56-.95-.66-.78-1.44-2a11.83,11.83,0,0,1-1.18-2.06,3.52,3.52,0,0,0-.59-1.15c-.38-.51-.57-.51-.64-.5-.24,0-.27.37-.55.41s-.23-.13-.45-.16-.59.19-.85.42a1.86,1.86,0,0,0-.63.85,3.66,3.66,0,0,0-.05.91,3.59,3.59,0,0,1-.32,1.2c-.38,1-.57,1.09-.83,1.78a6.61,6.61,0,0,0-.36,1.89,8.39,8.39,0,0,0,0,2.24,7.46,7.46,0,0,0,1,2.68,9.16,9.16,0,0,0,2.16,2.37c.83.63,1.3.75,1.63,1.4a2.49,2.49,0,0,0,.67.88c.17.13.44.34.71.27S25.15,130.47,25.29,130.12Z"/><path class="cls-7" d="M25.57,130.19c.65-2.23,2-4.27,2.21-6.64.21-2.59-1.19-4.24-2.54-6.27s-2-5.24-4.72-3.1a2.37,2.37,0,0,0-.71,1.06c-.43,1.17-.81,2.58-1.2,3.81a8.53,8.53,0,0,0,.71,7,18.85,18.85,0,0,0,4.29,4.48c.89.63,1.39.89,1.93-.29.16-.35-.35-.65-.51-.3s-3.18-1.92-3.42-2.15a7.8,7.8,0,0,1-2.77-6.8c.14-1.42,1.54-6.58,3.27-6.61.92,0,1.08.64,1.66,1.58.75,1.23,1.67,2.39,2.41,3.62,2.27,3.82-.13,6.82-1.18,10.43A.29.29,0,0,0,25.57,130.19Z"/><path class="cls-7" d="M22.44,114l.55.84h0a15.2,15.2,0,0,0,.93,1.73A11.91,11.91,0,0,0,25,118.24a5.24,5.24,0,0,1,1.07,1.68,8,8,0,0,1,.49,1.93,8.38,8.38,0,0,1-.13,4c-.4,1.26-.94,2.47-1.44,3.69.42-1.25.91-2.48,1.3-3.73a8.17,8.17,0,0,0,0-3.87,9.55,9.55,0,0,0-.45-1.9,4.85,4.85,0,0,0-1-1.64,12.85,12.85,0,0,1-1.08-1.67,10.76,10.76,0,0,1-.87-1.77h0Z"/><path class="cls-7" d="M21.89,114.36c1.19.92.58,2.74,1.76,3.59a5.2,5.2,0,0,1,1.06,1.78,13.23,13.23,0,0,1,.68,2,10.54,10.54,0,0,1,.13,4.11c-.14,1.37-.51,2.69-.71,4,.11-1.37.43-2.71.55-4.07a10.14,10.14,0,0,0-.2-4,13.31,13.31,0,0,0-.63-1.94,5,5,0,0,0-1-1.74C22.31,117.11,23,115.31,21.89,114.36Z"/><path class="cls-7" d="M24.78,130.19c-1-2.27-3.19-3.71-4.18-6.06a9.1,9.1,0,0,1-.55-4.95,17,17,0,0,1,1.35-4.75c.08-.14-.26-.12-.32,0a11.64,11.64,0,0,0-1,3.52,10.25,10.25,0,0,0-.29,4.54c.57,3.33,3.42,4.92,4.69,7.81.06.12.39,0,.35-.09Z"/><path class="cls-7" d="M24.65,129.07c-.69-2.52-2.06-4.76-2.64-7.34-.53-2.38-.34-4.89-.76-7.3a2.73,2.73,0,0,0,0,.51c.42,2.42.21,4.94.75,7.34.58,2.58,2,4.84,2.66,7.36a3.32,3.32,0,0,0,0-.57Z"/><path class="cls-8" d="M24.18,130c-.12-.18-.31-.43-.55-.72A13.27,13.27,0,0,0,22,127.75a9.09,9.09,0,0,1-1.72-1.92,8.08,8.08,0,0,1-1-2.43A7.21,7.21,0,0,1,19,121a7,7,0,0,1,.43-2,14.64,14.64,0,0,0,.9-2.56,7.1,7.1,0,0,0,.09-.82"/><path class="cls-7" d="M22,113.82a3.26,3.26,0,0,1-.11-2.09c.1-.38-.41-.28-.49,0a3.74,3.74,0,0,0,.12,2.36c.12.32.57,0,.48-.29Z"/><path class="cls-1" d="M34,125.66a3.54,3.54,0,0,0-.31-1c-.41-.85-.09-1.29-.32-2.9a10.54,10.54,0,0,0-.57-2.24,6.56,6.56,0,0,0-1.1-2,6.8,6.8,0,0,0-2.15-1.62c-1-.53-1-.33-2.28-1a11.11,11.11,0,0,1-2.06-1.17,3.92,3.92,0,0,0-1.1-.69c-.58-.24-.75-.14-.81-.1s0,.46-.26.63-.26,0-.47.09-.41.47-.52.8a1.88,1.88,0,0,0-.1,1.05c.08.34.22.42.42.81a3.93,3.93,0,0,1,.34,1.2c.18,1,.06,1.22.19,2a6.7,6.7,0,0,0,.65,1.81,8.23,8.23,0,0,0,1.16,1.92A7.45,7.45,0,0,0,27,125a9.23,9.23,0,0,0,3.06.93c1,.13,1.5,0,2.13.38a2.39,2.39,0,0,0,1,.41.86.86,0,0,0,.74-.13C34.15,126.37,34.1,126,34,125.66Z"/><path class="cls-7" d="M34.32,125.58c-.57-2.23-.44-4.64-1.46-6.77-.92-2-2.48-2.86-4.39-3.7a35.44,35.44,0,0,1-3.41-1.91c-.5-.28-1.18-.77-1.8-.54a3.7,3.7,0,0,0-1.45,1.72,2.57,2.57,0,0,0,.09,1.67c.31,1.32.51,2.78.9,4.11a8.54,8.54,0,0,0,3.32,4.64c1.85,1.24,4.26,1.46,6.34,2,1.17.29,2,.35,1.88-1.12,0-.38-.64-.38-.6,0,.06.53-3.87-.07-4.18-.12a7.55,7.55,0,0,1-5.42-3.81c-.88-1.63-.69-3.29-1.25-5-.39-1.18-1.05-2.1.34-3,.14-.08.19-.44.26-.46,1-.23,1.26.49,1.9.84,1.08.59,2.17,1.08,3.27,1.61,4.63,2.18,4,5.82,5.09,9.93A.3.3,0,0,0,34.32,125.58Z"/><path class="cls-7" d="M23.39,113.28l.9.45h0a15.09,15.09,0,0,0,1.69,1,11.87,11.87,0,0,0,1.77.83,5.66,5.66,0,0,1,1.79.89,9,9,0,0,1,1.4,1.42,8.43,8.43,0,0,1,1.91,3.46c.3,1.29.44,2.61.64,3.91-.28-1.29-.49-2.6-.79-3.87A8.14,8.14,0,0,0,30.77,118a10,10,0,0,0-1.35-1.4,5.15,5.15,0,0,0-1.72-.9,13.31,13.31,0,0,1-1.78-.87,10.8,10.8,0,0,1-1.66-1.09h0Z"/><path class="cls-7" d="M23.08,113.84c1.49.18,1.89,2.06,3.34,2.2a5.16,5.16,0,0,1,1.82,1,14.35,14.35,0,0,1,1.58,1.34A10.42,10.42,0,0,1,32,121.82c.58,1.25.94,2.58,1.46,3.84-.61-1.23-1-2.54-1.61-3.77a10.07,10.07,0,0,0-2.23-3.37,12.31,12.31,0,0,0-1.53-1.35,5,5,0,0,0-1.75-1C24.84,116,24.52,114.09,23.08,113.84Z"/><path class="cls-7" d="M33.67,126.05c-2-1.59-4.85-1.63-6.92-3.25a9,9,0,0,1-3-4.56c-.34-1.25-1.16-2.75-1-4,0-.1-.33,0-.34,0-.15,1.22.56,2.12.85,3.26a10.37,10.37,0,0,0,2.2,4.47,9.65,9.65,0,0,0,3.23,2.27c1.48.69,3.4.88,4.69,1.92.08.06.39-.07.32-.12Z"/><path class="cls-7" d="M33.1,125c-1.86-1.79-4.15-3-6-4.88s-2.84-4.11-4.46-6c.07.09-.11.46,0,.6,1.62,1.89,2.73,4.2,4.46,6s4.1,3.09,6,4.88c-.07-.07.12-.48,0-.59Z"/><path class="cls-8" d="M33,126.14c-.19-.09-.48-.21-.84-.34a14,14,0,0,0-2.18-.5,8.94,8.94,0,0,1-2.45-.78,7.89,7.89,0,0,1-2.08-1.59A7.26,7.26,0,0,1,24,121a7.07,7.07,0,0,1-.69-2,13.77,13.77,0,0,0-.53-2.66,5.16,5.16,0,0,0-.34-.75"/><path class="cls-7" d="M23,113.33a3.29,3.29,0,0,1-1.18-1.75c-.1-.36-.55,0-.47.23a3.74,3.74,0,0,0,1.28,2c.25.2.59-.28.37-.45Z"/><path class="cls-1" d="M149.06,130.12a3.82,3.82,0,0,1-.25-1c-.08-.94-.58-1.15-1.2-2.65a10.17,10.17,0,0,1-.65-2.22,6.48,6.48,0,0,1-.07-2.28,6.89,6.89,0,0,1,1-2.49c.57-.95.66-.78,1.45-2a11.52,11.52,0,0,0,1.17-2.06,4,4,0,0,1,.59-1.15c.38-.51.58-.51.65-.5.23,0,.27.37.54.41s.24-.13.46-.16.58.19.85.42a1.85,1.85,0,0,1,.62.85,3.24,3.24,0,0,1,0,.91,3.9,3.9,0,0,0,.33,1.2c.37,1,.57,1.09.83,1.78a7,7,0,0,1,.36,1.89,8,8,0,0,1,0,2.24,7.57,7.57,0,0,1-1,2.68,9.34,9.34,0,0,1-2.16,2.37c-.83.63-1.3.75-1.64,1.4a2.26,2.26,0,0,1-.67.88.87.87,0,0,1-.7.27C149.32,130.78,149.19,130.47,149.06,130.12Z"/><path class="cls-7" d="M149.34,130c-1.05-3.62-3.35-6.62-1.17-10.43.71-1.24,1.65-2.41,2.41-3.62.55-.88.72-1.6,1.65-1.58,1.74,0,3.13,5.23,3.28,6.61a7.53,7.53,0,0,1-2.5,6.55c-.09.09-3.47,2.89-3.7,2.4s-.67-.05-.51.3c.47,1,.82,1,1.71.53.73-.35,1.67-1.74,2.28-2.26a10.45,10.45,0,0,0,2.23-2.46,8.61,8.61,0,0,0,.71-7,31.65,31.65,0,0,0-1.17-3.6,2.82,2.82,0,0,0-.73-1.27c-2.69-2.16-3.42,1.15-4.73,3.1s-2.62,3.48-2.56,5.89,1.55,4.68,2.23,7C148.88,130.56,149.45,130.4,149.34,130Z"/><path class="cls-7" d="M151.9,114l-.5.87h0a10.76,10.76,0,0,1-.87,1.77,12.93,12.93,0,0,1-1.09,1.67,5,5,0,0,0-1,1.64,10.32,10.32,0,0,0-.46,1.9,8.17,8.17,0,0,0,.05,3.87c.39,1.25.88,2.48,1.29,3.73-.49-1.22-1-2.43-1.44-3.69a8.38,8.38,0,0,1-.12-4,8.52,8.52,0,0,1,.48-1.93,5.1,5.1,0,0,1,1.08-1.68,12.81,12.81,0,0,0,1.1-1.62,17.05,17.05,0,0,0,.94-1.73h0Z"/><path class="cls-7" d="M152.45,114.36c-1.1,1-.41,2.75-1.63,3.7a5.23,5.23,0,0,0-1,1.74,13.27,13.27,0,0,0-.62,1.94,10.14,10.14,0,0,0-.2,4c.12,1.36.44,2.7.55,4.07-.2-1.36-.58-2.68-.71-4a10.17,10.17,0,0,1,.13-4.11,14.46,14.46,0,0,1,.67-2A5.39,5.39,0,0,1,150.7,118C151.88,117.1,151.27,115.28,152.45,114.36Z"/><path class="cls-7" d="M149.91,130.25c1.18-2.7,3.88-4.27,4.62-7.32a9.71,9.71,0,0,0,.05-4.19,14.45,14.45,0,0,0-1.31-4.4c-.09-.13-.41,0-.32.16a24.55,24.55,0,0,1,1.29,4.33,9.5,9.5,0,0,1-.64,5.69c-1,2.19-3.08,3.55-4,5.7-.08.17.26.17.33,0Z"/><path class="cls-7" d="M149.71,129.64c.69-2.52,2.08-4.78,2.66-7.36.54-2.4.33-4.92.75-7.34a1.65,1.65,0,0,0,0-.51c-.42,2.41-.23,4.92-.76,7.3-.57,2.58-2,4.82-2.64,7.34,0,.17.05.48,0,.57Z"/><path class="cls-8" d="M150.17,130c.12-.18.31-.43.55-.72a13.27,13.27,0,0,1,1.62-1.55,8.81,8.81,0,0,0,1.71-1.92,7.88,7.88,0,0,0,1-2.43,7.48,7.48,0,0,0,.32-2.41,7.4,7.4,0,0,0-.43-2,13.86,13.86,0,0,1-.9-2.56,7.1,7.1,0,0,1-.09-.82"/><path class="cls-7" d="M152.82,114a3.78,3.78,0,0,0,.12-2.35c-.08-.31-.61-.06-.54.22a3.36,3.36,0,0,1-.1,2.1c-.13.34.42.29.52,0Z"/><path class="cls-1" d="M140.31,125.66a4.15,4.15,0,0,1,.3-1c.41-.85.09-1.29.32-2.9a10.33,10.33,0,0,1,.58-2.24,6.35,6.35,0,0,1,1.1-2,6.69,6.69,0,0,1,2.15-1.62c1-.53,1-.33,2.28-1a11.9,11.9,0,0,0,2.06-1.17,4,4,0,0,1,1.09-.69c.59-.24.76-.14.81-.1s.05.46.27.63.26,0,.47.09.4.47.51.8a1.79,1.79,0,0,1,.1,1.05c-.07.34-.22.42-.42.81a4,4,0,0,0-.33,1.2c-.19,1-.06,1.22-.19,2a6.74,6.74,0,0,1-.66,1.81,8.23,8.23,0,0,1-1.16,1.92,7.49,7.49,0,0,1-2.24,1.78,9.26,9.26,0,0,1-3.07.93c-1,.13-1.49,0-2.12.38a2.44,2.44,0,0,1-1,.41.87.87,0,0,1-.74-.13C140.2,126.37,140.25,126,140.31,125.66Z"/><path class="cls-7" d="M140.59,125.74c1.06-4.08.49-7.76,5.09-9.93,1.11-.53,2.2-1,3.28-1.61.47-.26,1.35-1,1.88-.87.1,0,.12.4.28.49,1.39.8.72,1.76.33,3-.57,1.72-.3,3.28-1.25,5a7.54,7.54,0,0,1-5.16,3.76c-.26.05-4.49.71-4.44.17,0-.38-.55-.38-.59,0-.14,1.4.68,1.46,1.84,1.14,2.12-.59,4.47-.74,6.38-2a8.48,8.48,0,0,0,3.31-4.64c.39-1.33.58-2.78.9-4.11a2.52,2.52,0,0,0,.1-1.67,3.88,3.88,0,0,0-1.46-1.72c-1.22-.46-4.17,2-5.21,2.45-1.9.83-3.45,1.73-4.37,3.67-1,2.14-.9,4.55-1.48,6.8C139.93,126,140.5,126.11,140.59,125.74Z"/><path class="cls-7" d="M151,113.28l-.88.5h0a10.8,10.8,0,0,1-1.66,1.09,12.22,12.22,0,0,1-1.78.87,5.19,5.19,0,0,0-1.71.9,9.49,9.49,0,0,0-1.36,1.4,8.12,8.12,0,0,0-1.93,3.35c-.31,1.27-.51,2.58-.79,3.87.2-1.3.34-2.62.64-3.91a8.43,8.43,0,0,1,1.91-3.46,9,9,0,0,1,1.4-1.42,5.51,5.51,0,0,1,1.78-.89,12,12,0,0,0,1.78-.83,16,16,0,0,0,1.69-1h0Z"/><path class="cls-7" d="M151.26,113.84c-1.43.25-1.75,2.15-3.29,2.35a5.05,5.05,0,0,0-1.75,1,13.08,13.08,0,0,0-1.53,1.35,10.22,10.22,0,0,0-2.23,3.37c-.59,1.23-1,2.54-1.6,3.77.52-1.26.87-2.59,1.46-3.84a10.42,10.42,0,0,1,2.21-3.47A13.38,13.38,0,0,1,146.1,117a5.29,5.29,0,0,1,1.83-1C149.37,115.9,149.78,114,151.26,113.84Z"/><path class="cls-7" d="M141,126.12c1.17-1,3-1.17,4.38-1.77a10.9,10.9,0,0,0,3.07-1.93,9.57,9.57,0,0,0,2.63-4.51c.32-1.23,1.07-2.44.92-3.73,0-.08-.35,0-.34.09.13,1.17-.59,2.55-.92,3.69a9.41,9.41,0,0,1-3.33,5.08c-2,1.47-4.77,1.51-6.68,3.06-.14.11.2.08.27,0Z"/><path class="cls-7" d="M141.25,125.63c1.85-1.79,4.15-3,5.95-4.88s2.85-4.11,4.47-6c.11-.14-.07-.51,0-.6-1.62,1.9-2.74,4.22-4.47,6s-4.1,3.09-5.95,4.88c-.12.11.07.53,0,.59Z"/><path class="cls-8" d="M141.31,126.14c.2-.09.49-.21.85-.34a13.88,13.88,0,0,1,2.17-.5,9.1,9.1,0,0,0,2.46-.78,7.89,7.89,0,0,0,2.08-1.59,7.47,7.47,0,0,0,1.5-1.91,7.31,7.31,0,0,0,.68-2,13.77,13.77,0,0,1,.53-2.66c.13-.33.26-.59.34-.75"/><path class="cls-7" d="M151.66,113.77a3.93,3.93,0,0,0,1.36-2c.1-.37-.36-.38-.45,0a3.15,3.15,0,0,1-1.11,1.66c-.24.19-.1.68.2.44Z"/></g></g></svg>